<?xml version="1.0" encoding="UTF-8" standalone="no"?>
<svg width="81px" height="86px" viewBox="0 0 81 86" version="1.1" xmlns="http://www.w3.org/2000/svg" xmlns:xlink="http://www.w3.org/1999/xlink" xmlns:sketch="http://www.bohemiancoding.com/sketch/ns">
    <!-- Generator: Sketch 3.2.2 (9983) - http://www.bohemiancoding.com/sketch -->
    <title>designer</title>
    <desc>Created with Sketch.</desc>
    <defs></defs>
    <g id="Page-1" stroke="none" stroke-width="1" fill="none" fill-rule="evenodd" sketch:type="MSPage">
        <g id="designer" sketch:type="MSLayerGroup" fill="#000000">
            <path d="M75.321,7.199 C72.32,7.199 68.705,4.241 68.705,4.241 L68.707,4.246 C66.175,2.051 62.879,0.72 59.268,0.72 C54.673,0.72 50.58,2.876 47.94,6.231 L47.945,6.216 C47.945,6.216 45.945,6.033 44.181,5.739 C42.421,5.446 38.931,5.543 37.689,5.739 C36.45,5.935 33.81,6.049 33.81,6.049 L33.808,6.049 C31.163,2.798 27.131,0.719 22.622,0.719 C16.183,0.719 15.713,2.052 13.183,4.245 L13.183,4.24 C13.183,4.24 9.57,7.198 6.569,7.198 L5.088,7.198 L5.088,12.16 C5.088,12.16 8.206,11.654 8.236,13.907 C8.223,14.069 8.209,14.232 8.201,14.396 C8.201,14.402 8.201,14.408 8.199,14.415 L8.199,14.415 C8.184,14.676 8.177,14.939 8.177,15.203 C8.177,23.204 14.643,29.688 22.619,29.688 C30.597,29.688 37.063,23.204 37.063,15.203 C37.063,14.432 37.003,13.676 36.885,12.938 L36.885,12.938 C36.885,12.931 36.885,12.925 36.88,12.919 C36.835,12.622 36.775,12.327 36.712,12.037 C36.342,9.082 38.667,9.247 38.667,9.247 L43.725,9.247 C45.231,9.257 45.367,10.653 45.248,11.726 C45.15,12.122 45.07,12.524 45.006,12.931 C45.006,12.934 45.003,12.94 45.003,12.94 L45.006,12.935 C44.888,13.675 44.828,14.432 44.828,15.205 C44.828,23.205 51.294,29.69 59.267,29.69 C67.245,29.69 73.711,23.206 73.711,15.205 C73.711,14.939 73.7,14.678 73.689,14.416 L73.689,14.416 L73.689,14.398 C73.678,14.233 73.664,14.069 73.649,13.908 C73.683,11.655 76.799,12.16 76.799,12.16 L76.799,7.201 L75.322,7.201 L75.322,7.199 L75.321,7.199 Z M22.664,27.892 C16,27.892 10.595,22.489 10.595,15.821 C10.595,9.155 16,3.75 22.664,3.75 C29.331,3.75 34.736,9.155 34.736,15.821 C34.736,22.487 29.331,27.892 22.664,27.892 L22.664,27.892 Z M59.221,27.892 C52.557,27.892 47.151,22.489 47.151,15.821 C47.151,9.155 52.557,3.75 59.221,3.75 C65.89,3.75 71.292,9.155 71.292,15.821 C71.292,22.487 65.89,27.892 59.221,27.892 L59.221,27.892 Z" id="Shape" sketch:type="MSShapeGroup"></path>
            <path d="M80.129,23.811 C81.05,29.143 79.806,33.836 79.613,38.158 C79.54,39.685 79.881,41.327 79.613,42.826 C79.522,43.32 79.175,43.647 78.92,44.209 C78.702,44.686 78.608,45.32 78.401,45.764 C78.169,46.264 77.906,46.677 77.709,47.147 C77.315,48.101 77.146,49.16 76.845,50.432 C76.723,50.944 76.445,51.469 76.324,51.987 C76.054,53.178 76.002,54.358 75.632,55.27 C75.451,55.718 75.221,56.061 74.944,56.48 C74.381,57.325 73.395,58.606 72.694,59.592 C72.356,60.068 71.826,60.486 71.658,60.975 C71.52,61.381 71.551,62.094 71.486,62.53 C71.4,63.122 71.381,63.636 71.313,64.087 C71.16,65.063 71.135,66.136 70.792,67.025 C70.599,67.536 70.201,67.866 69.756,68.41 C68.902,69.445 67.946,70.548 66.99,71.694 C66.194,72.643 65.356,74.523 64.74,75.84 C64.17,77.064 63.67,78.219 63.186,79.471 C62.248,80.127 61.154,80.988 60.076,81.892 C59.693,82.21 59.403,82.335 58.865,82.757 C58.62,82.948 58.514,83.205 58.346,83.274 C58.041,83.402 57.452,83.349 56.965,83.448 C55.128,83.82 52.726,84.37 50.566,84.831 C49.685,85.018 48.719,85.334 47.976,85.349 C46.445,85.382 44.885,84.796 43.482,84.659 C42.579,85.082 41.688,85.517 40.714,85.869 C40.073,85.412 39.36,85.032 38.64,84.659 C37.026,84.789 35.414,85.522 33.627,85.522 C32.096,85.522 30.276,84.867 28.439,84.486 C26.56,84.096 24.52,83.979 23.254,83.449 C22.513,83.137 22.03,82.563 21.352,82.066 C21.119,81.893 20.836,81.856 20.661,81.721 C20.461,81.563 20.346,81.189 20.143,81.029 C19.913,80.847 19.663,80.85 19.45,80.684 C19.059,80.375 18.746,79.894 18.241,79.819 C17.788,78.546 17.245,77.381 16.684,76.188 C16.141,75.029 15.618,73.779 14.957,72.732 C13.749,70.825 11.836,69.309 10.46,67.375 C10.395,65.929 9.985,64.28 9.77,62.878 C9.695,62.382 9.745,61.764 9.597,61.322 C9.472,60.947 9.342,61.01 9.076,60.631 C8.909,60.386 8.906,60.008 8.733,59.768 C8.638,59.635 8.493,59.581 8.385,59.421 C8.28,59.258 8.059,59.017 7.869,58.729 C7.759,58.567 7.538,58.325 7.351,58.039 C7.218,57.845 6.908,57.341 6.658,57 C6.03,56.15 5.79,56.119 5.45,54.753 C5.13,53.477 4.607,51.456 4.239,49.913 C4.092,49.288 4.089,48.6 3.894,48.012 C3.546,46.968 2.718,45.708 2.163,44.555 C1.647,43.469 1.557,41.907 1.475,40.06 C1.425,39.006 1.53,37.968 1.475,36.948 C1.368,34.988 0.914,32.991 0.782,30.898 C0.649,28.713 0.914,26.572 0.954,24.156 C2.295,27.237 3.224,30.587 4.412,34.01 C4.562,34.44 4.75,35.009 4.933,35.392 C5.514,36.632 6.565,37.636 7.353,38.676 C8.169,39.76 8.827,40.917 9.77,41.786 C10.773,41.935 11.785,42.079 12.88,42.132 C12.833,43.681 13.186,44.822 13.053,46.454 C13.771,47.18 14.935,47.454 15.993,47.835 C16.649,50.351 17.604,52.563 18.238,55.095 C19.937,54.43 21.724,53.856 23.253,53.024 C24.552,55.526 25.643,58.239 26.884,60.8 C28.083,60.271 29.557,60.018 30.688,59.418 C31.591,59.839 32.082,60.673 32.936,61.147 C34.683,59.413 36.502,57.865 38.811,56.134 C38.941,56.035 39.416,55.776 39.85,55.442 C40.941,54.595 40.586,54.387 42.098,55.442 C42.308,55.587 42.438,55.841 42.616,55.961 C43.425,56.502 44.142,57.091 45.036,57.689 C46.29,58.528 47.481,59.835 48.492,60.972 C49.472,60.627 49.796,59.626 50.742,59.245 C52.06,59.594 53.221,60.104 54.546,60.454 C55.859,58.081 56.941,55.474 58.002,52.849 C59.775,53.379 61.177,54.281 63.017,54.749 C64.008,52.573 64.529,49.924 65.437,47.664 C66.328,47.228 67.309,46.888 68.202,46.452 C68.208,44.903 68.493,43.631 68.375,41.958 C69.376,41.809 70.388,41.666 71.486,41.613 C72.087,41.268 72.301,40.59 72.697,40.057 C73.325,39.206 74.068,38.383 74.771,37.465 C74.874,37.33 74.829,37.096 74.944,36.946 C75.304,36.459 75.887,36.075 76.153,35.563 C76.378,35.128 76.465,34.573 76.671,34.008 C77.799,30.926 78.997,27.186 80.129,23.811 L80.129,23.811 Z" id="Shape" sketch:type="MSShapeGroup"></path>
            <path d="M41.062,35.956 C42.516,35.331 43.492,34.268 45.036,34.055 C46.142,33.903 47.504,34.178 48.667,34.401 C51.308,34.903 53.324,35.299 55.409,36.613 C55.646,36.762 56.222,37.268 56.274,37.304 C57.283,38.008 58.705,39.363 59.56,40.415 C59.707,40.597 59.803,40.682 59.97,40.891 C60.078,41.028 60.333,41.312 60.423,41.452 C60.721,41.922 61.153,43 61.459,43.7 C61.855,44.609 62.518,46.314 62.67,47.676 C62.945,50.145 62.215,52.651 62.497,55.456 C61.291,55.001 60.355,54.721 59.387,53.898 C57.741,52.507 58.732,48.713 56.965,47.158 C56.704,46.928 56.569,46.787 56.192,46.541 C56.125,46.498 56.174,45.229 56.117,45.203 C55.764,45.043 54.355,42.985 53.854,42.885 C52.316,42.58 50.199,43.042 48.324,43.23 C46.503,43.414 44.498,43.899 42.964,43.576 C42.051,43.384 41.59,42.765 40.89,42.192 C39.706,44.031 36.265,43.352 33.458,43.057 C31.548,42.853 29.639,44.25 28.1,44.527 C26.984,44.731 24.699,46.857 24.123,48.021 C23.382,49.527 23.908,51.315 23.087,52.862 C22.734,53.524 22.514,53.593 21.876,54.072 C21.333,54.478 20.33,54.845 19.456,55.456 C19.416,52.743 18.918,49.958 19.283,46.985 C19.376,46.221 19.728,45.088 20.149,44.045 C20.326,43.602 20.607,43.32 20.839,42.836 C21.302,41.862 21.53,41.266 22.22,40.416 C23.063,39.384 24.102,38.519 25.333,37.668 C25.393,37.626 25.968,37.001 26.023,36.977 C26.111,36.937 27.572,36.867 27.925,36.668 C29.659,35.683 31.766,34.368 34.494,34.057 C35.355,33.958 36.226,33.739 37.087,33.884 C37.753,33.997 38.496,34.577 39.159,34.921 C39.789,35.243 40.492,35.487 41.062,35.956 L41.062,35.956 Z" id="Shape" sketch:type="MSShapeGroup"></path>
        </g>
    </g>
</svg>