<?xml version="1.0" encoding="UTF-8" standalone="no"?>
<svg width="99px" height="60px" viewBox="0 0 99 60" version="1.1" xmlns="http://www.w3.org/2000/svg" xmlns:xlink="http://www.w3.org/1999/xlink" xmlns:sketch="http://www.bohemiancoding.com/sketch/ns">
    <!-- Generator: Sketch 3.2.2 (9983) - http://www.bohemiancoding.com/sketch -->
    <title>secure_file</title>
    <desc>Created with Sketch.</desc>
    <defs></defs>
    <g id="Page-1" stroke="none" stroke-width="1" fill="none" fill-rule="evenodd" sketch:type="MSPage">
        <g id="secure_file" sketch:type="MSLayerGroup" fill="#000000">
            <path d="M98.753,33.703 C98.637,33.582 98.477,33.51 98.313,33.51 L61.127,33.51 C60.959,33.51 60.799,33.582 60.678,33.703 C60.562,33.82 60.499,33.986 60.499,34.158 L60.499,58.909 C60.499,59.08 60.564,59.244 60.682,59.364 C60.799,59.485 60.959,59.554 61.127,59.554 L98.313,59.554 C98.473,59.554 98.637,59.485 98.753,59.364 C98.87,59.244 98.94,59.08 98.94,58.909 L98.94,34.158 C98.939,33.986 98.87,33.82 98.753,33.703 L98.753,33.703 Z M74.55,54.416 L77.559,45.15 C76.662,44.487 76.078,43.427 76.078,42.229 C76.078,40.215 77.709,38.584 79.718,38.584 C81.729,38.584 83.356,40.215 83.356,42.229 C83.356,43.427 82.776,44.487 81.878,45.15 L84.883,54.416 L74.55,54.416 L74.55,54.416 Z" id="Shape" sketch:type="MSShapeGroup"></path>
            <path d="M63.027,30.675 L68.895,30.675 C68.903,30.16 68.914,29.641 68.927,29.106 C69.063,23.784 74.013,19.108 79.716,19.096 C83.561,19.103 87.056,21.239 88.963,24.257 L95.397,24.257 C93.082,17.819 86.958,13.207 79.716,13.203 L79.712,13.203 C70.759,13.207 63.475,20.244 63.029,29.091 C63.027,29.106 63.027,29.744 63.027,30.675 L63.027,30.675 Z" id="Shape" sketch:type="MSShapeGroup"></path>
            <path d="M7.181,12.054 L61.09,12.054 C61.295,12.054 61.487,11.972 61.634,11.832 C61.78,11.683 61.86,11.489 61.86,11.283 L61.86,5.897 C61.86,5.692 61.78,5.496 61.634,5.354 C61.491,5.21 61.295,5.128 61.09,5.128 L26.062,5.12 L26.046,1.653 C26.046,1.228 25.701,0.885 25.276,0.885 L7.181,0.885 C6.976,0.885 6.779,0.969 6.634,1.109 C6.488,1.255 6.407,1.453 6.407,1.658 L6.407,11.282 C6.407,11.488 6.488,11.681 6.634,11.831 C6.783,11.976 6.973,12.054 7.181,12.054 L7.181,12.054 Z" id="Shape" sketch:type="MSShapeGroup"></path>
            <path d="M65.03,15.39 L1.403,15.39 C1.184,15.39 0.969,15.491 0.823,15.654 C0.681,15.819 0.608,16.041 0.637,16.258 L5.266,52.972 C5.311,53.356 5.638,53.643 6.028,53.643 L56.377,53.643 L56.377,32.56 C56.377,32.389 58.913,29.076 58.913,29.076 L58.913,27.495 C59.156,22.615 61.491,18.291 65.03,15.39 L65.03,15.39 Z" id="Shape" sketch:type="MSShapeGroup"></path>
        </g>
    </g>
</svg>