<?xml version="1.0" encoding="UTF-8" standalone="no"?>
<svg width="96px" height="100px" viewBox="0 0 96 100" version="1.1" xmlns="http://www.w3.org/2000/svg" xmlns:xlink="http://www.w3.org/1999/xlink" xmlns:sketch="http://www.bohemiancoding.com/sketch/ns">
    <!-- Generator: Sketch 3.2.2 (9983) - http://www.bohemiancoding.com/sketch -->
    <title>tools_icon</title>
    <desc>Created with Sketch.</desc>
    <defs></defs>
    <g id="Page-1" stroke="none" stroke-width="1" fill="none" fill-rule="evenodd" sketch:type="MSPage">
        <g id="tools_icon" sketch:type="MSLayerGroup" transform="translate(0.000000, -1.000000)" fill="#010101">
            <path d="M6.225,19.551 C6.208,19.528 6.22,19.497 6.2,19.477 C5.997,19.264 5.678,19.227 5.431,19.403 L0.72,22.776 C0.45,22.968 0.456,23.269 0.595,23.569 C1.532,25.583 4.067,29.975 6.944,32.448 C7.195,32.664 7.468,32.764 7.738,32.572 L12.45,29.224 C12.7,29.046 12.767,28.743 12.624,28.48 C12.612,28.459 12.589,28.425 12.574,28.406 C14.035,23.385 19.561,20.962 25.247,22.553 C30.143,23.923 33.53,30.018 36.184,33.862 C36.271,33.987 39.557,38.922 42.781,43.782 L48.113,36.59 L42.83,29.745 C26.515,8.58 31.29,2.506 59.621,9.085 C53.774,5.07 47.063,0.977 38.49,1 C32.625,1.017 25.887,2.954 17.955,8.143 C12.838,11.882 15.928,18.173 6.225,19.551 L6.225,19.551 Z" id="Shape" sketch:type="MSShapeGroup"></path>
            <path d="M2.033,5.936 C5.786,7.464 9.547,8.977 13.292,10.524 C13.627,9.795 14.015,9.074 14.532,8.392 C9.791,6.412 4.789,4.249 0.099,2.315 L0.074,20.593 L2.033,19.179 L2.033,5.936 L2.033,5.936 Z" id="Shape" sketch:type="MSShapeGroup"></path>
            <path d="M82.537,7.572 L82.189,10.126 C85.839,8.628 89.523,7.144 93.152,5.662 L93.002,91.671 L91.515,92.316 L91.863,92.788 C92.214,93.278 92.395,93.808 92.482,94.35 L95.086,93.234 L95.185,2.315 C91.126,3.989 86.748,5.817 82.537,7.572 L82.537,7.572 Z" id="Shape" sketch:type="MSShapeGroup"></path>
            <path d="M63.738,4.795 L73.039,8.738 L75.072,7.473 L75.37,7.324 C71.383,5.675 67.4,4.019 63.415,2.364 C61.096,3.328 58.769,4.28 56.446,5.241 C57.194,5.79 57.9,6.35 58.555,6.903 L63.738,4.795 L63.738,4.795 Z" id="Shape" sketch:type="MSShapeGroup"></path>
            <path d="M80.007,13.624 L81.841,4.994 L74.551,9.557 L65.548,15.906 L11.904,88.051 C9.193,91.773 11.124,95.787 13.466,97.525 C15.488,99.026 19.752,100.354 22.89,96.235 C40.786,72.259 58.702,48.134 76.584,24.09 L80.007,13.624 L80.007,13.624 Z M64.482,21.238 L65.276,21.188 L20.46,80.685 L64.482,21.238 L64.482,21.238 Z M68.375,24.263 L68.97,24.437 L24.379,83.338 L68.375,24.263 L68.375,24.263 Z M14.062,96.806 C11.696,95.046 10.905,91.963 12.078,89.564 L21.527,96.607 C19.566,98.421 16.428,98.564 14.062,96.806 L14.062,96.806 Z M13.64,86.959 L13.764,86.34 L14.434,85.645 L24.502,93.16 L13.64,86.959 L13.64,86.959 Z M15.153,84.95 L15.252,84.305 L15.946,83.61 L26.015,91.125 L15.153,84.95 L15.153,84.95 Z M16.641,82.917 L16.766,82.271 L17.46,81.578 L27.529,89.092 L16.641,82.917 L16.641,82.917 Z M28.322,86.166 L72.319,26.843 L73.46,26.372 L28.322,86.166 L28.322,86.166 Z M74.576,24.933 L72.741,25.826 L71.847,23.792 L68.5,23.296 L67.904,19.899 L64.853,20.32 L65.276,18.014 L66.045,16.576 L75.394,10.128 L76.56,11.318 L79.264,12.806 L75.718,23.768 L74.576,24.933 L74.576,24.933 Z" id="Shape" sketch:type="MSShapeGroup"></path>
            <path d="M45.93,8.267 C45.394,8.25 44.834,8.246 44.269,8.243 C43.019,8.235 41.701,8.272 40.301,8.342 C40.282,8.344 40.269,8.363 40.251,8.367 L47.493,11.417 L53.519,8.962 C52.089,8.75 50.511,8.547 48.782,8.416 C48.369,8.588 47.957,8.766 47.543,8.937 C47.005,8.714 46.468,8.489 45.93,8.267 L45.93,8.267 Z" id="Shape" sketch:type="MSShapeGroup"></path>
            <path id="Shape" sketch:type="MSShapeGroup" d="M64.482,14.566 L64.457,9.142 L64.407,14.69 L64.482,14.566 Z"></path>
            <path id="Shape" sketch:type="MSShapeGroup" d="M64.457,9.061 L64.457,9.142 L64.458,9.061 L64.457,9.061 Z"></path>
            <path d="M9.35,94.969 L2.108,91.945 L2.059,30.24 C1.24,29.034 0.584,27.785 0.075,26.544 L0,93.432 L12.078,98.467 C11.006,97.568 10,96.351 9.35,94.969 L9.35,94.969 Z" id="Shape" sketch:type="MSShapeGroup"></path>
            <path d="M32.191,57.992 L33.034,56.876 L32.86,32.794 C32.728,32.596 32.599,32.424 32.464,32.224 L32.191,57.992 L32.191,57.992 Z" id="Shape" sketch:type="MSShapeGroup"></path>
            <path d="M63.986,54 L64.755,55.091 L64.68,42.864 C64.484,43.129 64.283,43.392 64.085,43.657 L63.986,54 L63.986,54 Z" id="Shape" sketch:type="MSShapeGroup"></path>
            <path d="M58.901,50.626 C56.883,53.342 54.843,56.073 52.825,58.786 L82.041,100.724 C83.278,102.138 91.188,97.818 90.448,94.547 L58.901,50.626 L58.901,50.626 Z" id="Shape" sketch:type="MSShapeGroup"></path>
            <path d="M64.977,87.803 L64.928,79.916 L63.738,78.206 L63.638,87.182 L64.977,87.803 Z" id="Shape" sketch:type="MSShapeGroup"></path>
            <path id="Shape" sketch:type="MSShapeGroup" d="M63.737,78.205 L63.738,78.206 L63.738,78.205 L63.737,78.205 Z"></path>
            <path d="M31.894,87.182 L33.233,87.803 L33.209,85.124 C32.767,85.718 32.337,86.316 31.895,86.909 L31.895,87.182 L31.894,87.182 Z" id="Shape" sketch:type="MSShapeGroup"></path>
            <path d="M63.464,90.878 L47.493,97.549 L31.496,91.002 L27.652,92.614 C26.741,93.834 25.837,95.037 24.924,96.26 L31.67,93.482 L47.543,100.03 L63.415,93.482 L78.792,99.831 L76.287,96.235 L63.464,90.878 L63.464,90.878 Z" id="Shape" sketch:type="MSShapeGroup"></path>
        </g>
    </g>
</svg>